<svg width="246" height="41" viewBox="0 0 246 41" fill="none" xmlns="http://www.w3.org/2000/svg">
<g clip-path="url(#clip0)">
<path d="M36.2519 7.25635C29.9687 7.25635 24.8164 12.1038 24.8164 18.0302C24.8164 23.9566 29.9687 28.8041 36.2519 28.8041C42.5611 28.8041 47.7134 23.9566 47.7134 18.0302C47.7134 12.1038 42.5611 7.25635 36.2519 7.25635ZM36.2519 24.581C32.6583 24.581 29.6562 21.6252 29.6562 18.0302C29.6562 14.4352 32.6583 11.4794 36.2519 11.4794C39.8715 11.4794 42.8736 14.4352 42.8736 18.0302C42.8698 21.6215 39.8715 24.581 36.2519 24.581Z" fill="#EF8A00"/>
<path d="M62.8878 16.4266C59.8858 15.8355 56.8837 15.296 56.8837 13.2824C56.8837 11.6345 58.7995 10.988 61.1171 10.988C63.4979 10.988 65.73 11.6863 68.148 12.2072C69.6658 12.4917 70.2015 11.3242 70.2015 10.5224C70.2015 9.56549 69.4426 9.0002 68.4679 8.579C66.6823 7.78832 64.0931 7.37451 61.3849 7.37451C55.2022 7.37451 51.5938 9.53963 51.5938 13.4154C51.5938 17.487 55.5816 18.7839 59.4021 19.6447C62.4191 20.3283 65.6444 20.8123 65.6444 22.8185C65.6444 24.507 63.4905 25.161 61.0873 25.161C58.8069 25.161 56.467 24.4627 53.8593 24.0193C52.5349 23.8346 51.7202 24.8285 51.7202 25.8741C51.7202 26.746 52.2634 27.363 53.238 27.8175C55.0236 28.6488 58.4312 29.0035 60.9237 29.0035C67.2217 29.0035 71.2691 26.7719 71.2691 22.667C71.2729 18.5289 67.1771 17.2542 62.8878 16.4266Z" fill="#EF8A00"/>
<path d="M87.5666 24.5811C87.1871 24.6735 86.7333 24.8508 86.0972 24.8508C83.3741 24.8508 82.1279 22.9554 82.1279 20.4984V11.6052H87.8196C88.8872 11.6052 89.7465 10.748 89.7465 9.68759C89.7465 8.6272 88.8835 7.77002 87.8196 7.77002H82.1279V4.44845C82.1279 3.12204 81.0453 2.04688 79.7061 2.04688C78.3706 2.04688 77.2881 3.12204 77.2881 4.44845V7.77002H74.8477C73.78 7.77002 72.917 8.6272 72.917 9.68759C72.917 10.748 73.78 11.6052 74.8477 11.6052H77.2881V20.9085C77.2881 25.3089 80.3088 28.8005 85.5206 28.8005C86.5027 28.8005 87.336 28.6268 88.0167 28.4532C89.0211 28.2241 89.8209 27.4704 89.8209 26.4285C89.8247 25.32 88.9653 24.3446 87.5666 24.5811Z" fill="#EF8A00"/>
<path d="M13.1653 0.0849609H2.47012C1.04162 0.0849609 0 1.11949 0 2.53827V9.92035L4.43059 8.29097L1.64427 5.19478C1.45454 4.98418 1.60706 4.65535 1.88979 4.65905L17.3169 4.88812C17.607 4.89182 17.7447 5.24651 17.5326 5.44233L5.72145 16.5155C5.50941 16.7113 5.16344 16.5561 5.1746 16.2716L5.35316 11.1174L0 13.2456V26.2659C0 27.6847 1.01558 28.7192 2.41804 28.7192C3.8205 28.7192 4.8398 27.6847 4.8398 26.2659V18.6621H12.9867C18.4664 18.6621 22.4803 14.6977 22.4803 9.36245C22.4803 3.97922 18.3399 0.0849609 13.1653 0.0849609Z" fill="#EF8A00"/>
<path d="M95.2261 25.9592V1.64785C95.2261 0.738948 95.9664 0 96.8852 0C97.3837 0 97.8413 0.195821 98.1277 0.554211L110.285 15.8024L122.39 0.609632C122.684 0.240158 123.164 0.0110842 123.685 0.0110842C124.596 0.0110842 125.344 0.746337 125.344 1.64785V25.9629C125.344 27.2487 124.295 28.2906 123 28.2906C121.705 28.2906 120.656 27.2487 120.656 25.9629L120.66 9.3403L111.397 21.2447C111.137 21.5773 110.746 21.7657 110.285 21.7657C109.824 21.7657 109.437 21.5773 109.173 21.2447L99.9096 9.3403L99.9133 25.9629C99.9133 27.2487 98.8643 28.2906 97.5697 28.2906C96.2751 28.2869 95.2261 27.2487 95.2261 25.9592Z" fill="#1AC6DD"/>
<path d="M130.615 17.8829C130.615 11.6868 135.656 7.39355 140.987 7.39355C144.42 7.39355 147.385 9.27418 148.509 11.8827L148.579 8.97121C148.724 8.11403 149.595 7.48592 150.767 7.48592C152.039 7.48592 152.932 8.46872 152.932 9.82469V25.9227C152.932 27.2084 152.18 28.2873 150.767 28.2873C149.472 28.2873 148.721 27.589 148.579 26.802L148.509 23.8906C147.382 26.5914 144.301 28.3797 141.009 28.3797C135.608 28.3723 130.615 24.0568 130.615 17.8829ZM148.174 17.8829C148.174 14.3581 145.298 11.5021 141.749 11.5021C138.2 11.5021 135.325 14.3581 135.325 17.8829C135.325 21.4077 138.2 24.2637 141.749 24.2637C145.298 24.2637 148.174 21.4077 148.174 17.8829Z" fill="#1AC6DD"/>
<path d="M159.482 25.9555V9.64695C159.482 8.46094 160.513 7.46705 161.744 7.46705C162.92 7.46705 163.909 8.40182 163.909 9.51763V12.8835H163.98C164.676 9.61739 167.164 7.4375 169.891 7.38946C171.223 7.37099 171.922 8.19492 171.922 9.1888C171.922 10.3674 171.357 11.2726 169.869 11.5941C166.465 12.2444 164.196 15.056 164.196 18.9983V25.9592C164.196 27.2524 163.143 28.298 161.841 28.298C160.535 28.298 159.482 27.2487 159.482 25.9555Z" fill="#1AC6DD"/>
<path d="M189.842 26.0661C189.842 27.0785 189.061 27.8137 188.086 28.0354C187.42 28.2054 186.609 28.3716 185.653 28.3716C180.575 28.3716 177.637 24.9725 177.637 20.6866V11.6271H175.259C174.222 11.6271 173.381 10.7921 173.381 9.76124C173.381 8.73041 174.222 7.8954 175.259 7.8954H177.637V4.6625C177.637 3.36934 178.689 2.32373 179.991 2.32373C181.293 2.32373 182.346 3.36934 182.346 4.6625V7.8954H187.885C188.923 7.8954 189.764 8.73041 189.764 9.76124C189.764 10.7921 188.923 11.6271 187.885 11.6271H182.346V20.2839C182.346 22.6743 183.559 24.5217 186.208 24.5217C186.825 24.5217 187.268 24.3481 187.636 24.2594C189.005 24.034 189.842 24.9799 189.842 26.0661Z" fill="#1AC6DD"/>
<path d="M193.187 26.4299C193.187 25.3211 193.941 24.5396 194.997 24.5396C196.054 24.5396 196.778 25.3184 196.778 26.4299C196.778 27.509 196.084 28.3203 194.967 28.3203C193.911 28.3203 193.187 27.509 193.187 26.4299Z" fill="#1AC6DD"/>
<path d="M205.159 27.69L198.782 15.4933C198.657 15.2743 198.597 15.0065 198.597 14.7496C198.597 13.8139 199.414 13.0864 200.331 13.0864C201.006 13.0864 201.54 13.4894 201.851 14.06L206.256 22.8681L210.463 14.1655C210.773 13.5435 211.343 13.0918 212.07 13.0918C213.025 13.0918 213.72 13.8626 213.72 14.8091C213.72 15.0931 213.657 15.3608 213.526 15.5961L207.204 27.69C206.997 28.0605 206.629 28.312 206.185 28.312C205.736 28.312 205.366 28.0605 205.159 27.69Z" fill="#1AC6DD"/>
<path d="M216.897 26.5462V14.701C216.897 13.7762 217.518 13.1271 218.534 13.1271C219.411 13.1271 220.135 13.595 220.135 14.4928V16.6022H220.187C221.025 14.3333 223.092 13 225.276 13C229.265 13 231.838 16.0668 231.838 20.0151V26.5435C231.838 27.5549 231.114 28.2905 230.114 28.2905C229.115 28.2905 228.391 27.5522 228.391 26.5435V20.3451C228.391 17.9977 226.7 16.0613 224.369 16.0613C222.164 16.0613 220.345 18.0464 220.345 20.4695V26.5435C220.345 27.5549 219.62 28.2905 218.621 28.2905C217.622 28.2932 216.897 27.5549 216.897 26.5462Z" fill="#1AC6DD"/>
</g>
<path d="M121.539 40V35.7344H122.799C123.256 35.7344 123.603 35.8291 123.839 36.0186C124.075 36.2061 124.193 36.4834 124.193 36.8506C124.193 37.0713 124.133 37.2637 124.012 37.4277C123.893 37.5898 123.729 37.7061 123.52 37.7764C123.768 37.8311 123.967 37.9531 124.117 38.1426C124.27 38.332 124.346 38.5508 124.346 38.7988C124.346 39.1758 124.224 39.4707 123.979 39.6836C123.737 39.8945 123.399 40 122.966 40H121.539ZM121.899 37.9492V39.6953H122.98C123.289 39.6953 123.533 39.6172 123.713 39.4609C123.895 39.3027 123.985 39.084 123.985 38.8047C123.985 38.541 123.898 38.333 123.725 38.1807C123.553 38.0264 123.314 37.9492 123.01 37.9492H121.899ZM121.899 37.6475H122.884C123.185 37.6416 123.417 37.5713 123.581 37.4365C123.747 37.2998 123.83 37.1016 123.83 36.8418C123.83 36.5684 123.744 36.3672 123.572 36.2383C123.402 36.1074 123.145 36.042 122.799 36.042H121.899V37.6475ZM127.138 40C127.103 39.9004 127.08 39.7529 127.07 39.5576C126.947 39.7178 126.79 39.8418 126.599 39.9297C126.409 40.0156 126.208 40.0586 125.995 40.0586C125.69 40.0586 125.443 39.9736 125.254 39.8037C125.066 39.6338 124.973 39.4189 124.973 39.1592C124.973 38.8506 125.101 38.6064 125.356 38.4268C125.614 38.2471 125.973 38.1572 126.432 38.1572H127.067V37.7969C127.067 37.5703 126.997 37.3926 126.856 37.2637C126.718 37.1328 126.515 37.0674 126.247 37.0674C126.003 37.0674 125.801 37.1299 125.641 37.2549C125.48 37.3799 125.4 37.5303 125.4 37.7061L125.049 37.7031C125.049 37.4512 125.166 37.2334 125.4 37.0498C125.635 36.8643 125.923 36.7715 126.265 36.7715C126.618 36.7715 126.896 36.8604 127.1 37.0381C127.305 37.2139 127.41 37.46 127.416 37.7764V39.2764C127.416 39.583 127.448 39.8125 127.513 39.9648V40H127.138ZM126.036 39.748C126.271 39.748 126.479 39.6914 126.663 39.5781C126.849 39.4648 126.983 39.3135 127.067 39.124V38.4268H126.44C126.091 38.4307 125.817 38.4951 125.62 38.6201C125.423 38.7432 125.324 38.9131 125.324 39.1299C125.324 39.3076 125.39 39.4551 125.521 39.5723C125.653 39.6895 125.825 39.748 126.036 39.748ZM126.25 36.2998V35.9336C126.42 35.9199 126.544 35.8945 126.622 35.8574C126.7 35.8184 126.739 35.752 126.739 35.6582C126.739 35.5703 126.686 35.502 126.578 35.4531C126.473 35.4043 126.33 35.3799 126.15 35.3799L126.171 35.1543C126.438 35.1543 126.648 35.2002 126.801 35.292C126.955 35.3838 127.032 35.5068 127.032 35.6611C127.032 35.79 126.987 35.8955 126.897 35.9775C126.81 36.0576 126.683 36.1045 126.517 36.1182L126.514 36.2998H126.25ZM128.16 38.3682C128.16 38.0635 128.219 37.7891 128.336 37.5449C128.455 37.3008 128.622 37.1113 128.837 36.9766C129.054 36.8398 129.299 36.7715 129.572 36.7715C129.994 36.7715 130.336 36.9199 130.598 37.2168C130.859 37.5117 130.99 37.9033 130.99 38.3916V38.4648C130.99 38.7715 130.931 39.0479 130.812 39.2939C130.694 39.5381 130.528 39.7266 130.313 39.8594C130.099 39.9922 129.854 40.0586 129.578 40.0586C129.158 40.0586 128.816 39.9111 128.553 39.6162C128.291 39.3193 128.16 38.9268 128.16 38.4385V38.3682ZM128.512 38.4648C128.512 38.8438 128.609 39.1553 128.805 39.3994C129.002 39.6416 129.26 39.7627 129.578 39.7627C129.895 39.7627 130.15 39.6416 130.346 39.3994C130.543 39.1553 130.642 38.834 130.642 38.4355V38.3682C130.642 38.126 130.597 37.9043 130.507 37.7031C130.417 37.502 130.291 37.3467 130.129 37.2373C129.967 37.126 129.781 37.0703 129.572 37.0703C129.26 37.0703 129.005 37.1934 128.808 37.4395C128.61 37.6836 128.512 38.0039 128.512 38.4004V38.4648ZM133.721 36.0186V36.8301H134.377V37.1172H133.721V39.2295C133.721 39.4053 133.752 39.5361 133.814 39.6221C133.879 39.708 133.985 39.751 134.134 39.751C134.192 39.751 134.287 39.7412 134.418 39.7217L134.433 40.0088C134.341 40.042 134.216 40.0586 134.058 40.0586C133.817 40.0586 133.643 39.9893 133.533 39.8506C133.424 39.71 133.369 39.5039 133.369 39.2324V37.1172H132.786V36.8301H133.369V36.0186H133.721ZM136.568 37.1289C136.494 37.1152 136.415 37.1084 136.331 37.1084C136.112 37.1084 135.927 37.1699 135.774 37.293C135.624 37.4141 135.517 37.5908 135.452 37.8232V40H135.104V36.8301H135.446L135.452 37.334C135.638 36.959 135.936 36.7715 136.346 36.7715C136.443 36.7715 136.521 36.7842 136.577 36.8096L136.568 37.1289ZM136.87 38.3682C136.87 38.0635 136.929 37.7891 137.046 37.5449C137.165 37.3008 137.332 37.1113 137.547 36.9766C137.764 36.8398 138.009 36.7715 138.282 36.7715C138.692 36.7715 139.027 36.9121 139.287 37.1934C139.463 37.1797 139.588 37.123 139.662 37.0234C139.738 36.9238 139.776 36.7461 139.776 36.4902H140.078C140.078 36.7773 140.026 36.9961 139.923 37.1465C139.821 37.2969 139.667 37.3896 139.46 37.4248C139.614 37.6846 139.694 37.9873 139.7 38.333V38.4648C139.7 38.7695 139.641 39.0449 139.521 39.291C139.402 39.5371 139.235 39.7266 139.021 39.8594C138.806 39.9922 138.562 40.0586 138.288 40.0586C137.864 40.0586 137.521 39.9102 137.26 39.6133C137 39.3164 136.87 38.9248 136.87 38.4385V38.3682ZM137.219 38.4648C137.219 38.8438 137.316 39.1553 137.512 39.3994C137.709 39.6416 137.968 39.7627 138.288 39.7627C138.603 39.7627 138.857 39.6416 139.053 39.3994C139.25 39.1553 139.349 38.834 139.349 38.4355V38.3682C139.349 37.9932 139.25 37.6836 139.053 37.4395C138.855 37.1934 138.599 37.0703 138.282 37.0703C137.968 37.0703 137.712 37.1934 137.515 37.4395C137.317 37.6836 137.219 38.0039 137.219 38.4004V38.4648ZM138.057 40.7031C138.057 40.6367 138.078 40.5801 138.121 40.5332C138.164 40.4883 138.223 40.4658 138.297 40.4658C138.373 40.4658 138.433 40.4883 138.476 40.5332C138.519 40.5801 138.54 40.6367 138.54 40.7031C138.54 40.7676 138.519 40.8223 138.476 40.8672C138.433 40.9121 138.373 40.9346 138.297 40.9346C138.223 40.9346 138.164 40.9121 138.121 40.8672C138.078 40.8223 138.057 40.7676 138.057 40.7031ZM144.435 38.4473C144.435 38.9414 144.325 39.334 144.106 39.625C143.888 39.9141 143.594 40.0586 143.225 40.0586C142.783 40.0586 142.449 39.8945 142.223 39.5664L142.208 40H141.88V35.5H142.229V37.29C142.451 36.9443 142.781 36.7715 143.219 36.7715C143.594 36.7715 143.89 36.915 144.106 37.2021C144.325 37.4873 144.435 37.8848 144.435 38.3945V38.4473ZM144.083 38.3857C144.083 37.9678 144.002 37.6455 143.84 37.4189C143.678 37.1904 143.449 37.0762 143.154 37.0762C142.93 37.0762 142.739 37.1318 142.583 37.2432C142.427 37.3525 142.309 37.5137 142.229 37.7266V39.1562C142.404 39.5547 142.715 39.7539 143.16 39.7539C143.449 39.7539 143.675 39.6396 143.837 39.4111C144.001 39.1826 144.083 38.8408 144.083 38.3857ZM145.015 38.3682C145.015 38.0635 145.073 37.7891 145.19 37.5449C145.31 37.3008 145.477 37.1113 145.691 36.9766C145.908 36.8398 146.153 36.7715 146.427 36.7715C146.837 36.7715 147.172 36.9121 147.432 37.1934C147.607 37.1797 147.732 37.123 147.807 37.0234C147.883 36.9238 147.921 36.7461 147.921 36.4902H148.223C148.223 36.7773 148.171 36.9961 148.067 37.1465C147.966 37.2969 147.812 37.3896 147.604 37.4248C147.759 37.6846 147.839 37.9873 147.845 38.333V38.4648C147.845 38.7695 147.785 39.0449 147.666 39.291C147.547 39.5371 147.38 39.7266 147.165 39.8594C146.95 39.9922 146.706 40.0586 146.433 40.0586C146.009 40.0586 145.666 39.9102 145.404 39.6133C145.145 39.3164 145.015 38.9248 145.015 38.4385V38.3682ZM145.363 38.4648C145.363 38.8438 145.461 39.1553 145.656 39.3994C145.854 39.6416 146.112 39.7627 146.433 39.7627C146.747 39.7627 147.002 39.6416 147.197 39.3994C147.395 39.1553 147.493 38.834 147.493 38.4355V38.3682C147.493 37.9932 147.395 37.6836 147.197 37.4395C147 37.1934 146.743 37.0703 146.427 37.0703C146.112 37.0703 145.856 37.1934 145.659 37.4395C145.462 37.6836 145.363 38.0039 145.363 38.4004V38.4648ZM146.333 36.3027V35.9365C146.503 35.9229 146.627 35.8975 146.705 35.8604C146.783 35.8213 146.822 35.7549 146.822 35.6611C146.822 35.5732 146.769 35.5049 146.661 35.4561C146.556 35.4072 146.413 35.3828 146.233 35.3828L146.254 35.1572C146.521 35.1572 146.731 35.2031 146.884 35.2949C147.038 35.3867 147.115 35.5098 147.115 35.6641C147.115 35.793 147.07 35.8984 146.98 35.9805C146.893 36.0605 146.766 36.1074 146.6 36.1211L146.597 36.3027H146.333ZM148.961 40H148.609V36.8301H148.961V40ZM148.548 35.9131C148.548 35.8467 148.569 35.791 148.612 35.7461C148.655 35.6992 148.714 35.6758 148.788 35.6758C148.862 35.6758 148.921 35.6992 148.964 35.7461C149.009 35.791 149.031 35.8467 149.031 35.9131C149.031 35.9795 149.009 36.0352 148.964 36.0801C148.921 36.125 148.862 36.1475 148.788 36.1475C148.714 36.1475 148.655 36.125 148.612 36.0801C148.569 36.0352 148.548 35.9795 148.548 35.9131Z" fill="black"/>
<g clip-path="url(#clip1)">
<path d="M151 35H152.335L154.373 38.6146L156.312 35H157.481L154.712 40H153.903L151 35Z" fill="#004689"/>
<path d="M160.139 35H158.97V40H160.139V35Z" fill="#004689"/>
<path d="M162.315 35H167.461V35.8556H163.484V36.9662H165.802V37.8179H163.484V39.0581H167.508V40H162.315V35Z" fill="#004689"/>
<path d="M171.911 40H170.742V35.8909H168.432V35H174.234V35.8909H171.911V40Z" fill="#004689"/>
<path d="M175.557 35H176.354L179.893 37.9435C180.098 38.1083 180.292 38.2849 180.47 38.489C180.438 38.073 180.418 37.7826 180.418 37.6256V35H181.473V40H180.675L176.982 36.9074C176.832 36.7818 176.698 36.6523 176.564 36.4992C176.603 36.8878 176.611 37.1507 176.611 37.2959V40H175.561V35H175.557Z" fill="#004689"/>
<path d="M187.428 38.0063L186.346 35.9694L185.225 38.0063H187.428ZM185.817 35H186.947L189.834 40H188.518L187.914 38.905H184.727L184.143 40H182.974L185.817 35Z" fill="#004689"/>
<path d="M191.342 35H192.286L194.655 38.022L196.973 35H197.909V40H196.827V36.9074C196.827 36.8093 196.839 36.6327 196.867 36.3736C196.76 36.5934 196.661 36.7779 196.575 36.8956L194.683 39.3917H194.45L192.558 36.8838C192.444 36.7268 192.333 36.562 192.258 36.3697C192.278 36.5699 192.286 36.7386 192.286 36.9035V39.9961H191.342V35V35Z" fill="#004689"/>
<path d="M205.101 35.8634V37.19H207.736C208.095 37.19 208.261 37.1193 208.261 36.7936V36.2598C208.261 35.9301 208.095 35.8634 207.736 35.8634H205.101ZM203.952 35H208.261C209.031 35 209.394 35.2708 209.394 35.9694V37.084C209.394 37.7826 209.031 38.0534 208.261 38.0534H205.101V40H203.952V35Z" fill="#004689"/>
<path d="M216.017 35.8909H212.159V39.0581H216.017V35.8909ZM212.234 35H215.938C216.882 35 217.186 35.2433 217.186 36.1852V38.8187C217.186 39.7606 216.882 40.0039 215.938 40.0039H212.234C211.29 40.0039 210.986 39.7606 210.986 38.8187V36.1852C210.986 35.2433 211.29 35 212.234 35Z" fill="#004689"/>
<path d="M220.618 35.8713V36.9466H223.758C224.702 36.9466 225.014 37.1899 225.014 38.1279V38.8147C225.014 39.7567 224.702 39.9961 223.758 39.9961H220.646C219.702 39.9961 219.39 39.7527 219.39 38.8147V38.646H220.425V39.0581H223.983V37.916H220.843C219.896 37.916 219.596 37.6727 219.596 36.7347V36.1852C219.596 35.2433 219.896 35.0039 220.843 35.0039H223.699C224.595 35.0039 224.947 35.2355 224.947 36.0989V36.2166H223.912V35.8713H220.618Z" fill="#004689"/>
<path d="M229.678 40H228.509V35.8909H226.198V35H232V35.8909H229.678V40Z" fill="#004689"/>
</g>
<defs>
<clipPath id="clip0">
<rect width="246" height="29" fill="white"/>
</clipPath>
<clipPath id="clip1">
<rect width="81" height="5" fill="white" transform="translate(151 35)"/>
</clipPath>
</defs>
</svg>
